<?xml version="1.0" standalone="no"?>
<!DOCTYPE svg PUBLIC "-//W3C//DTD SVG 20010904//EN"
 "http://www.w3.org/TR/2001/REC-SVG-20010904/DTD/svg10.dtd">
<svg version="1.0" xmlns="http://www.w3.org/2000/svg"
 width="1000.000000pt" height="1000.000000pt" viewBox="0 0 1000.000000 1000.000000"
 preserveAspectRatio="xMidYMid meet">
<metadata>
Created by potrace 1.14, written by Peter Selinger 2001-2017
</metadata>
<g transform="translate(0.000000,1000.000000) scale(0.100000,-0.100000)"
fill="#000000" stroke="none">
<path d="M2220 5058 c-1059 -1832 -1940 -3357 -1958 -3389 l-33 -59 483 0 483
0 479 870 480 870 1455 -2 1456 -3 3 -867 2 -868 860 0 860 0 2 1718 3 1717
1343 3 1342 2 0 180 0 180 -1342 2 -1343 3 0 1300 0 1300 1492 3 1493 2 0 185
0 185 -2817 0 -2818 -1 -1925 -3331z m3250 3082 l0 -90 -140 0 -140 0 0 90 0
90 140 0 140 0 0 -90z m1170 0 l0 -90 -135 0 -135 0 0 90 0 90 135 0 135 0 0
-90z m-1172 -370 c-2 -50 -6 -90 -10 -90 -5 0 -66 0 -138 0 l-130 0 0 90 0 90
140 0 141 0 -3 -90z m1172 0 l0 -90 -135 0 -135 0 0 90 0 90 135 0 135 0 0
-90z m-1575 -1970 l0 -1685 -1242 -3 c-684 -1 -1243 0 -1243 3 0 4 1476 2626
1812 3218 l89 157 292 -2 292 -3 0 -1685z m400 1595 l0 -90 -137 -3 -138 -3 0
96 0 96 138 -3 137 -3 0 -90z m1175 0 l0 -95 -135 0 -135 0 0 95 0 95 135 0
135 0 0 -95z m-1175 -370 l0 -90 -137 -3 -138 -3 0 96 0 96 138 -3 137 -3 0
-90z m1175 0 l0 -95 -135 0 -135 0 0 95 0 95 135 0 135 0 0 -95z m-1172 -372
l3 -93 -141 0 -140 0 0 88 c0 49 3 92 7 96 4 3 66 5 137 4 l131 -3 3 -92z
m1172 2 l0 -95 -135 0 -135 0 0 88 c0 49 3 92 7 95 3 4 64 7 135 7 l128 0 0
-95z m-1170 -375 l0 -90 -140 0 -140 0 0 90 0 90 140 0 140 0 0 -90z m1170 0
l0 -90 -135 0 -135 0 0 90 0 90 135 0 135 0 0 -90z m-1172 -372 l-3 -93 -135
0 -135 0 -3 93 -3 92 141 0 141 0 -3 -92z m1172 -3 l0 -96 -132 3 -133 3 -3
93 -3 92 136 0 135 0 0 -95z m-1175 -370 l0 -90 -137 -3 -138 -3 0 96 0 96
138 -3 137 -3 0 -90z m1175 0 l0 -95 -135 0 -135 0 0 95 0 95 135 0 135 0 0
-95z m-1175 -370 l0 -90 -137 -3 -138 -3 0 89 c0 49 3 92 7 96 4 3 66 5 137 4
l131 -3 0 -90z m1175 0 l0 -95 -135 0 -135 0 0 95 0 95 135 0 135 0 0 -95z
m-1170 -375 l0 -90 -140 0 -140 0 0 90 0 90 140 0 140 0 0 -90z m1170 0 l0
-90 -135 0 -135 0 0 90 0 90 135 0 135 0 0 -90z m-1172 -372 l-3 -93 -135 0
-135 0 -3 93 -3 92 141 0 141 0 -3 -92z m1172 -3 l0 -96 -132 3 -133 3 -3 93
-3 92 136 0 135 0 0 -95z m-1175 -370 l0 -90 -137 -3 -138 -3 0 96 0 96 138
-3 137 -3 0 -90z m1175 0 l0 -95 -135 0 -135 0 0 95 0 95 135 0 135 0 0 -95z
m-1175 -370 l0 -90 -137 -3 -138 -3 0 96 0 96 138 -3 137 -3 0 -90z m1175 0
l0 -95 -135 0 -135 0 0 95 0 95 135 0 135 0 0 -95z m-1170 -376 l0 -89 -140 0
-140 0 0 90 0 89 133 3 c72 2 135 2 140 0 4 -2 7 -43 7 -93z m1170 1 l0 -90
-135 0 -135 0 0 90 0 90 135 0 135 0 0 -90z m-1170 -370 l0 -90 -140 0 -140 0
0 90 0 90 140 0 140 0 0 -90z m1170 0 l0 -90 -135 0 -135 0 0 90 0 90 135 0
135 0 0 -90z m-1175 -375 l0 -90 -135 0 -135 0 -3 93 -3 93 138 -3 138 -3 0
-90z m1175 0 l0 -95 -135 0 -135 0 0 95 0 95 135 0 135 0 0 -95z m-1175 -370
l0 -90 -137 -3 -138 -3 0 96 0 96 138 -3 137 -3 0 -90z m1175 0 l0 -95 -135 0
-135 0 0 95 0 95 135 0 135 0 0 -95z m-1172 -372 l3 -93 -141 0 -140 0 0 88
c0 49 3 92 7 96 4 3 66 5 137 4 l131 -3 3 -92z m1172 2 l0 -95 -135 0 -135 0
0 88 c0 49 3 92 7 95 3 4 64 7 135 7 l128 0 0 -95z"/>
</g>
</svg>
